<?xml version="1.0" encoding="iso-8859-1"?>
<!-- Generator: Adobe Illustrator 19.0.0, SVG Export Plug-In . SVG Version: 6.00 Build 0)  -->
<svg version="1.1" id="Capa_1" xmlns="http://www.w3.org/2000/svg" xmlns:xlink="http://www.w3.org/1999/xlink" x="0px" y="0px"
	 viewBox="0 0 443.839 443.839" style="enable-background:new 0 0 443.839 443.839;" xml:space="preserve">
	 <line x1="443.839" y1="0" x2="0" y2="443.839" style="stroke:rgb(0,0,0);stroke-width:20" />
<g>
	<g>
		<path d="M404.199,47.2h-174.24V8c0-4.418-3.582-8-8-8s-8,3.582-8,8v39.2H39.639c-4.418,0-8,3.582-8,8s3.582,8,8,8h23.2v246.96
			c0,4.418,3.582,8,8,8h143.12v30.24l-75.6,81.36c-3.357,2.872-3.75,7.923-0.877,11.28c2.872,3.357,7.923,3.75,11.28,0.877
			c0.445-0.381,0.846-0.809,1.198-1.277l64-68.8v63.36c0,4.418,3.582,8,8,8s8-3.582,8-8v-63.36l64,68.8
			c2.783,3.432,7.821,3.958,11.253,1.175c3.432-2.783,3.958-7.821,1.175-11.253c-0.231-0.284-0.48-0.552-0.748-0.803l-75.68-81.44
			v-30.16h143.04c4.418,0,8-3.582,8-8V63.2h23.2c4.418,0,8-3.582,8-8S408.618,47.2,404.199,47.2z M78.919,302.16V63.2h286.08
			l0.08,238.96H78.919z"/>
	</g>
</g>
<g>
</g>
<g>
</g>
<g>
</g>
<g>
</g>
<g>
</g>
<g>
</g>
<g>
</g>
<g>
</g>
<g>
</g>
<g>
</g>
<g>
</g>
<g>
</g>
<g>
</g>
<g>
</g>
<g>
</g>
</svg>
